# xmcd CD database file
#
# Track frame offsets:
#	150
#	17185
#	31645
#	47285
#	60222
#	72207
#	85585
#	98485
#	112445
#	126862
#	142477
#	155440
#	173267
#	187467
#
# Disc length: 2688 seconds
#
# Revision: 0
# Processed by: cddbd v1.4PL0 Copyright (c) Steve Scherf et al.
# Submitted via: CDex 1.51
#
DISCID=b50a7e0e
DTITLE=Art Pepper - Timeless Art Pepper
DYEAR=2002
DGENRE=Jazz
TTITLE0=The Way You Look Tonight
TTITLE1=Nutmeg
TTITLE2=What's New
TTITLE3=Surf Ride
TTITLE4=These Foolish Things
TTITLE5=Chili Pepper
TTITLE6=Tickle Toe
TTITLE7=Everything Happens To Me
TTITLE8=Suzy The Poodle
TTITLE9=Thyme Time
TTITLE10=Straight Life
TTITLE11=Deep Purple
TTITLE12=Cinnamon
TTITLE13=Art's Oregano
EXTD=YEAR: 2002
EXTT0=
EXTT1=
EXTT2=
EXTT3=
EXTT4=
EXTT5=
EXTT6=
EXTT7=
EXTT8=
EXTT9=
EXTT10=
EXTT11=
EXTT12=
EXTT13=
PLAYORDER=
